{
.appVersion = "3151";
.formatVersion = 3;
DisplayStrings = (
"ABCDEFGHIJKLMNOPQRSTUVWXYZ
abcdetfjJghiIjklmnopqrstuvxyz
01234567890",
"17",
"the quicknihl brown fox jumraps over the lazy dog",
E,
"ĹM",
X,
L,
"nnnooo
",
"yeoadam2007@yahoo.fr
YAHOO.FR",
a,
b,
c,
d,
"ď",
i,
j,
l,
m,
n,
o,
p,
q,
r,
s,
t,
u,
v,
w,
x,
y,
z,
"0",
"1",
"2",
"3",
"4",
"5",
"6",
"7",
"?",
"8",
"9",
"®",
A,
B,
C,
D,
F,
G,
H,
I,
J,
K,
M,
W,
N,
O,
"Ő",
"Œ",
P,
Q,
R,
S,
T,
U,
V,
Y,
Z,
"å",
"©",
"@"
);
customParameters = (
{
name = glyphOrder;
value = (
A,
Aacute,
Abreve,
Acircumflex,
Adieresis,
Agrave,
Amacron,
Aogonek,
Aring,
Atilde,
AE,
B,
C,
Cacute,
Ccaron,
Ccedilla,
Cdotaccent,
D,
Dcaron,
Dcroat,
Eth,
E,
Eacute,
Ecaron,
Ecircumflex,
Edieresis,
Edotaccent,
Egrave,
Emacron,
Eogonek,
F,
G,
Gbreve,
Gcommaaccent,
Gdotaccent,
H,
Hbar,
I,
Iacute,
Icircumflex,
Idieresis,
Idotaccent,
Igrave,
Imacron,
Iogonek,
J,
K,
Kcommaaccent,
L,
Lacute,
Lcaron,
Lcommaaccent,
Lslash,
M,
N,
Nacute,
Ncaron,
Ncommaaccent,
Ntilde,
Eng,
O,
Oacute,
Ocircumflex,
Odieresis,
Ograve,
Ohungarumlaut,
Omacron,
Oslash,
Otilde,
OE,
P,
Thorn,
Q,
R,
Racute,
Rcaron,
Rcommaaccent,
S,
Sacute,
Scaron,
Scedilla,
Scommaaccent,
Germandbls,
T,
Tcaron,
Tcommaaccent,
U,
Uacute,
Ubreve,
Ucircumflex,
Udieresis,
Ugrave,
Uhungarumlaut,
Umacron,
Uogonek,
Uring,
V,
W,
Wacute,
Wcircumflex,
Wdieresis,
Wgrave,
X,
Y,
Yacute,
Ycircumflex,
Ydieresis,
Ygrave,
Z,
Zacute,
Zcaron,
Zdotaccent,
a,
aacute,
abreve,
acircumflex,
adieresis,
agrave,
amacron,
aogonek,
aring,
atilde,
ae,
b,
c,
cacute,
ccaron,
ccedilla,
cdotaccent,
d,
dcaron,
dcroat,
eth,
e,
eacute,
ecaron,
ecircumflex,
edieresis,
edotaccent,
egrave,
emacron,
eogonek,
f,
g,
gbreve,
gcommaaccent,
gdotaccent,
h,
hbar,
i,
idotless,
iacute,
icircumflex,
idieresis,
idotaccent,
igrave,
imacron,
iogonek,
j,
jdotless,
k,
kcommaaccent,
l,
lacute,
lcaron,
lcommaaccent,
lslash,
m,
n,
nacute,
ncaron,
ncommaaccent,
ntilde,
eng,
o,
oacute,
ocircumflex,
odieresis,
ograve,
ohungarumlaut,
omacron,
oslash,
otilde,

glyphs = (
{
color = 10;
glyphname = A;
lastChange = "2023-10-30 17:18:21 +0000";
layers = (
{
layerId = "49F060A0-2273-4F54-8B81-08E0B15B03EC";
shapes = (
{
closed = 1;
nodes = (
(317,400,o),
(380,434,o),
(444,434,cs),
(507,434,o),
(569,400,o),
(569,334,cs),
(569,319,o),
(566,297,o),
(552,282,cs),
(535,264,o),
(496,251,o),
(448,251,cs),
(402,251,o),
(355,263,o),
(336,281,cs),
(324,292,o),
(317,309,o),
(317,332,cs)
);
},
{
closed = 1;
locked = 1;
nodes = (
(747,71,o),
(856,317,o),
(856,471,cs),
(856,667,o),
(678,817,o),
(443,817,cs),
(212,817,o),
(30,671,o),
(30,468,cs),
(30,317,o),
(131,80,o),
(276,1,cs),
(296,-10,o),
(311,-14,o),
(322,-14,cs),
(366,-14,o),
(363,42,o),
(353,81,cs),
(348,102,o),
(336,137,o),
(336,150,cs),
(336,160,o),
(342,169,o),
(356,175,cs),
(370,181,o),
(406,190,o),
(445,190,cs),
(474,190,o),
(506,185,o),
(530,175,cs),
(547,168,o),
(551,161,o),
(551,153,cs),
(551,137,o),
(537,102,o),
(533,81,cs),
(525,35,o),
(520,-14,o),
(564,-14,cs),
(575,-14,o),
(591,-10,o),
(610,0,cs)
);
}
);
width = 886;
}
);
unicode = 65;
},
{
color = 10;
glyphname = B;
lastChange = "2023-10-30 17:21:17 +0000";
layers = (
{
layerId = "49F060A0-2273-4F54-8B81-08E0B15B03EC";
shapes = (
{
closed = 1;
locked = 1;
nodes = (
(585,-15,o),
(717,55,o),
(717,146,cs),
(717,217,o),
(670,282,o),
(594,282,c),
(597,282,o),
(825,319,o),
(825,519,cs),
(825,689,o),
(662,811,o),
(455,811,cs),
(209,811,o),
(40,638,o),
(40,406,cs),
(40,169,o),
(216,-15,o),
(445,-15,cs)
);
},
{
closed = 1;
nodes = (
(536,375,o),
(513,323,o),
(458,291,cs),
(403,259,o),
(345,264,o),
(327,297,cs),
(308,332,o),
(339,384,o),
(392,413,cs),
(445,442,o),
(500,437,o),
(518,406,cs)
);
},
{
closed = 1;
nodes = (
(557,78,o),
(514,51,o),
(462,51,cs),
(409,51,o),
(366,78,o),
(366,111,cs),
(366,144,o),
(409,171,o),
(462,171,cs),
(514,171,o),
(557,144,o),
(557,111,cs)
);
}
);
width = 850;
}
);
unicode = 66;
},
{
color = 10;
glyphname = C;
lastChange = "2023-10-30 17:23:10 +0000";
layers = (
{
backgroundImage = {
imagePath = "Scan 15.png";
locked = 1;
pos = (-617,-218);
scale = (3.4561,3.4561);
};
layerId = "49F060A0-2273-4F54-8B81-08E0B15B03EC";
shapes = (
{
closed = 1;
locked = 1;
nodes = (
(515,61,o),
(472,38,o),
(437,38,cs),
(347,38,o),
(288,107,o),
(288,230,cs),
(288,336,o),
(332,422,o),
(441,422,cs),
(483,422,o),
(528,418,o),
(552,413,cs),
(571,409,o),
(593,405,o),
(619,405,cs),
(713,405,o),
(762,455,o),
(762,554,cs),
(762,703,o),
(652,802,o),
(460,802,cs),
(195,802,o),
(30,614,o),
(30,384,cs),
(30,138,o),
(218,-20,o),
(430,-20,cs),
(495,-20,o),
(556,-5,o),
(597,14,cs),
(668,47,o),
(683,91,o),
(659,112,cs),
(633,135,o),
(584,108,o),
(549,84,cs)
);
}
);
width = 782;
}
);
unicode = 67;
},
{
color = 10;
glyphname = D;
lastChange = "2023-10-30 14:41:52 +0000";
layers = (
{
backgroundImage = {
angle = -8;
imagePath = D.png;
locked = 1;
pos = (-416,-605);
scale = (2.8168,2.8168);
};
layerId = "49F060A0-2273-4F54-8B81-08E0B15B03EC";
shapes = (
{
closed = 1;
nodes = (
(613,-11,o),
(780,205,o),
(780,438,cs),
(780,689,o),
(587,815,o),
(321,815,cs),
(103,815,o),
(40,731,o),
(40,439,cs),
(40,112,o),
(119,-11,o),
(331,-11,cs)
);
},
{
closed = 1;
nodes = (
(225,53,o),
(206,158,o),
(206,274,cs),
(206,393,o),
(226,458,o),
(336,458,cs),
(444,458,o),
(501,396,o),
(501,283,cs),
(501,153,o),
(426,53,o),
(327,53,cs)
);
}
);
width = 805;
}
);
unicode = 68;
},
{
color = 10;
glyphname = E;
lastChange = "2023-10-30 17:41:35 +0000";
layers = (
{
layerId = "49F060A0-2273-4F54-8B81-08E0B15B03EC";
shapes = (
{
closed = 1;
locked = 1;
nodes = (
(654,133,o),
(643,124,o),
(617,107,cs),
(570,76,o),
(510,43,o),
(442,43,cs),
(344,43,o),
(288,113,o),
(288,234,cs),
(288,344,o),
(336,449,o),
(453,431,cs),
(493,425,o),
(593,410,o),
(619,410,cs),
(713,410,o),
(762,460,o),
(762,559,cs),
(762,708,o),
(652,807,o),
(460,807,cs),
(195,807,o),
(30,619,o),
(30,389,cs),
(30,143,o),
(218,-15,o),
(431,-15,cs),
(568,-15,o),
(668,50,o),
(701,92,cs),
(712,106,o),
(718,121,o),
(710,135,cs),
(700,152,o),
(680,148,o),
(664,139,cs)
);
},
{
closed = 1;
nodes = (
(272,202,o),
(302,213,o),
(342,213,cs),
(390,213,o),
(453,198,o),
(501,198,cs),
(542,198,o),
(572,209,o),
(572,248,cs),
(572,287,o),
(542,298,o),
(501,298,cs),
(453,298,o),
(391,284,o),
(343,284,cs),
(302,284,o),
(272,294,o),
(272,333,c),
(272,163,l)
);
}
);
width = 782;
}
);
unicode = 69;
},
{
color = 10;
glyphname = F;
lastChange = "2023-10-30 17:45:40 +0000";
layers = (
{
layerId = "49F060A0-2273-4F54-8B81-08E0B15B03EC";
shapes = (
{
closed = 1;
nodes = (
(290,195,o),
(310,219,o),
(371,219,cs),
(417,219,o),
(485,204,o),
(534,204,cs),
(576,204,o),
(608,215,o),
(608,256,cs),
(608,296,o),
(578,308,o),
(533,308,cs),
(482,308,o),
(427,293,o),
(364,293,cs),
(328,293,o),
(304,298,o),
(319,338,c),
(192,169,l),
(307,138,l)
);
},
{
closed = 1;
nodes = (
(273,-10,o),
(289,-13,o),
(300,-13,cs),
(317,-13,o),
(325,2,o),
(325,36,cs),
(325,67,o),
(319,101,o),
(305,147,cs),
(299,168,o),
(298,195,o),
(298,212,cs),
(298,334,o),
(347,443,o),
(470,423,cs),
(513,416,o),
(616,400,o),
(643,400,cs),
(741,400,o),
(792,452,o),
(792,555,cs),
(792,710,o),
(677,813,o),
(477,813,cs),
(202,813,o),
(30,617,o),
(30,378,cs),
(30,203,o),
(122,71,o),
(250,3,c)
);
}
);
width = 804;
}
);
unicode = 70;
},
{
color = 10;
glyphname = G;
lastChange = "2023-10-30 17:46:43 +0000";
layers = (
{
backgroundImage = {
imagePath = "Scan 12.png";
locked = 1;
pos = (-415,-812);
scale = (3.3142,3.3142);
};
hints = (
{
horizontal = 1;
place = (340, 112);
place = (340, 112);
type = Stem;
},
{
horizontal = 1;
place = (340, 76);
place = (340, 76);
type = Stem;
},
{
place = (35, 611);
place = (35, 611);
type = Stem;
},
{
horizontal = 1;
place = (-15, 0);
place = (-15, 0);
type = Stem;
}
);
layerId = "49F060A0-2273-4F54-8B81-08E0B15B03EC";
shapes = (
{
closed = 1;
locked = 1;
nodes = (
(652,811,o),
(458,811,cs),
(195,811,o),
(30,628,o),
(30,381,cs),
(30,157,o),
(216,-11,o),
(426,-11,cs),
(594,-11,o),
(732,77,o),
(732,184,cs),
(732,254,o),
(597,289,o),
(431,263,cs),
(381,255,o),
(367,246,o),
(367,226,cs),
(367,197,o),
(399,186,o),
(441,186,cs),
(499,186,o),
(528,156,o),
(528,126,cs),
(528,92,o),
(492,56,o),
(431,56,cs),
(350,56,o),
(288,116,o),
(288,240,cs),
(288,344,o),
(332,436,o),
(441,436,cs),
(483,436,o),
(528,427,o),
(552,422,cs),
(570,418,o),
(594,414,o),
(620,414,cs),
(713,414,o),
(762,464,o),
(762,563,cs),
(762,712,o)
);
}
);
width = 764;
}
);
unicode = 71;
},
{
color = 10;
glyphname = H;
lastChange = "2023-10-30 17:47:33 +0000";
layers = (
{
backgroundImage = {
imagePath = H.png;
locked = 1;
pos = (-407,-892);
scale = (3.5534,3.5534);
};
layerId = "49F060A0-2273-4F54-8B81-08E0B15B03EC";
shapes = (
{
closed = 1;
nodes = (
(374,183,o),
(408,187,o),
(449,187,cs),
(485,187,o),
(518,184,o),
(535,176,cs),
(550,169,o),
(554,157,o),
(554,147,cs),
(554,130,o),
(542,100,o),
(537,80,cs),
(534,68,o),
(531,48,o),
(531,33,cs),
(531,4,o),
(543,-15,o),
(567,-15,cs),
(577,-15,o),
(594,-12,o),
(618,2,cs),
(710,55,o),
(812,210,o),
(850,372,cs),
(860,415,o),
(864,450,o),
(864,485,cs),
(864,703,o),
(705,811,o),
(590,811,cs),
(523,811,o),
(477,775,o),
(477,703,cs),
(477,624,o),
(532,515,o),
(558,425,cs),
(568,391,o),
(573,364,o),
(573,340,cs),
(573,319,o),
(569,302,o),
(556,288,cs),
(542,273,o),
(509,258,o),
(452,258,cs),
(401,258,o),
(355,271,o),
(338,288,cs),
(326,300,o),
(321,318,o),
(321,340,cs),
(321,367,o),
(328,398,o),
(336,425,cs),
(362,515,o),
(418,624,o),
(418,703,cs),
(418,775,o),
(371,811,o),
(304,811,cs),
(189,811,o),
(30,703,o),
(30,485,cs),
(30,450,o),
(34,415,o),
(44,372,cs),
(82,208,o),
(188,50,o),
(280,0,cs),
(300,-11,o),
(315,-15,o),
(326,-15,cs),
(351,-15,o),
(363,4,o),
(363,34,cs),
(363,49,o),
(360,68,o),
(357,80,cs),
(352,101,o),
(340,129,o),
(340,147,cs),
(340,157,o),
(344,169,o),
(359,176,cs)
);
}
);
width = 894;
}
);
unicode = 72;
},
{
color = 10;
glyphname = I;
lastChange = "2023-10-30 03:54:35 +0000";
layers = (
{
backgroundImage = {
imagePath = "Scan 17.png";
locked = 1;
pos = (-1144,-138);
scale = (3.352,3.352);
};
layerId = "49F060A0-2273-4F54-8B81-08E0B15B03EC";
shapes = (
{
closed = 1;
nodes = (
(286,-10,o),
(345,299,o),
(345,537,cs),
(345,683,o),
(307,800,o),
(195,800,cs),
(83,800,o),
(45,683,o),
(45,537,cs),
(45,299,o),
(95,-10,o),
(195,-10,c)
);
}
);
width = 390;
}
);
unicode = 73;
},
{
color = 10;
glyphname = J;
lastChange = "2023-10-30 17:48:28 +0000";
layers = (
{
layerId = "49F060A0-2273-4F54-8B81-08E0B15B03EC";
shapes = (
{
closed = 1;
nodes = (
(88,114,o),
(62,125,o),
(45,125,cs),
(25,125,o),
(10,111,o),
(10,86,cs),
(10,33,o),
(73,-14,o),
(145,-14,cs),
(282,-14,o),
(405,137,o),
(458,370,cs),
(467,407,o),
(472,453,o),
(472,487,cs),
(472,692,o),
(365,812,o),
(209,812,cs),
(125,812,o),
(83,777,o),
(83,706,cs),
(83,643,o),
(114,600,o),
(159,437,cs),
(216,231,o),
(205,114,o),
(111,114,cs)
);
}
);
width = 502;
}
);
unicode = 74;
},
{
color = 10;
glyphname = K;
lastChange = "2023-10-30 17:55:37 +0000";
layers = (
{
layerId = "49F060A0-2273-4F54-8B81-08E0B15B03EC";
shapes = (
{
closed = 1;
locked = 1;
nodes = (
(724,259,o),
(854,303,o),
(854,486,cs),
(854,704,o),
(695,812,o),
(580,812,cs),
(513,812,o),
(467,776,o),
(467,705,cs),
(467,626,o),
(524,509,o),
(548,426,cs),
(557,395,o),
(563,367,o),
(563,341,cs),
(563,320,o),
(559,303,o),
(546,289,cs),
(532,274,o),
(499,259,o),
(442,259,cs),
(391,259,o),
(345,272,o),
(328,289,cs),
(316,301,o),
(311,319,o),
(311,341,cs),
(311,368,o),
(318,399,o),
(326,426,cs),
(349,509,o),
(408,625,o),
(408,705,cs),
(408,776,o),
(361,812,o),
(294,812,cs),
(179,812,o),
(20,704,o),
(20,486,cs),
(20,451,o),
(24,416,o),
(34,373,cs),
(72,209,o),
(178,51,o),
(270,1,cs),
(290,-10,o),
(305,-14,o),
(316,-14,cs),
(341,-14,o),
(353,5,o),
(353,36,cs),
(353,52,o),
(350,67,o),
(347,81,cs),
(340,111,o),
(330,132,o),
(330,151,cs),
(330,182,o),
(399,188,o),
(442,188,cs),
(474,188,o),
(536,182,o),
(536,151,cs),
(536,132,o),
(527,117,o),
(527,81,cs),
(527,49,o),
(531,-14,o),
(573,-14,cs),
(615,-14,o),
(679,80,o),
(705,126,cs),
(750,208,o),
(678,230,o),
(580,230,c)
);
}
);
width = 874;
}
);
unicode = 75;
},
{
color = 10;
glyphname = L;
lastChange = "2023-10-30 17:56:19 +0000";
layers = (
{
layerId = "49F060A0-2273-4F54-8B81-08E0B15B03EC";
shapes = (
{
closed = 1;
locked = 1;
nodes = (
(297,114,o),
(287,233,o),
(343,437,cs),
(388,600,o),
(419,643,o),
(419,706,cs),
(419,777,o),
(377,812,o),
(293,812,cs),
(137,812,o),
(30,692,o),
(30,487,cs),
(30,453,o),
(35,407,o),
(44,370,cs),
(97,137,o),
(220,-14,o),
(357,-14,cs),
(429,-14,o),
(492,33,o),
(492,86,cs),
(492,111,o),
(477,125,o),
(457,125,cs),
(440,125,o),
(414,114,o),
(391,114,cs)
);
}
);
width = 512;
}
);
unicode = 76;
},
{
color = 10;
glyphname = M;
lastChange = "2023-10-30 17:58:15 +0000";
layers = (
{
backgroundImage = {
imagePath = "Scan 3.png";
locked = 1;
pos = (-567,-1154);
scale = (3.4063,3.4063);
};
layerId = "49F060A0-2273-4F54-8B81-08E0B15B03EC";
shapes = (
{
closed = 1;
locked = 1;
nodes = (
(492,748,o),
(537,811,o),
(626,811,cs),
(741,811,o),
(899,703,o),
(899,485,cs),
(899,450,o),
(895,415,o),
(885,372,cs),
(846,204,o),
(744,54,o),
(654,2,cs),
(630,-12,o),
(613,-15,o),
(604,-15,cs),
(579,-15,o),
(567,6,o),
(567,32,cs),
(567,80,o),
(608,161,o),
(608,296,cs),
(608,398,o),
(585,437,o),
(525,437,c),
(525,99,o),
(509,-14,o),
(462,-14,cs),
(415,-14,o),
(399,99,o),
(399,437,c),
(339,437,o),
(316,398,o),
(316,296,cs),
(316,161,o),
(357,80,o),
(357,32,cs),
(357,6,o),
(345,-15,o),
(320,-15,cs),
(311,-15,o),
(294,-12,o),
(270,2,cs),
(180,54,o),
(78,204,o),
(39,372,cs),
(29,415,o),
(25,450,o),
(25,485,cs),
(25,703,o),
(183,811,o),
(298,811,cs),
(387,811,o),
(432,748,o),
(462,677,c)
);
}
);
width = 924;
}
);
unicode = 77;
},
{
color = 10;
glyphname = N;
lastChange = "2023-10-30 18:00:48 +0000";
layers = (
{
backgroundImage = {
imagePath = "Scan 6.png";
locked = 1;
pos = (-334,-827);
scale = (3.4061,3.4061);
};
layerId = "49F060A0-2273-4F54-8B81-08E0B15B03EC";
shapes = (
{
closed = 1;
locked = 1;
nodes = (
(419,395,o),
(448,-14,o),
(606,-14,cs),
(749,-14,o),
(896,320,o),
(896,505,cs),
(896,696,o),
(739,811,o),
(624,811,cs),
(560,811,o),
(514,775,o),
(514,704,cs),
(514,630,o),
(564,538,o),
(584,425,cs),
(597,350,o),
(595,271,o),
(559,271,cs),
(532,271,o),
(485,271,o),
(485,625,cs),
(485,777,o),
(377,812,o),
(311,812,cs),
(195,812,o),
(40,702,o),
(40,490,cs),
(40,317,o),
(178,-13,o),
(333,-13,cs),
(364,-13,o),
(369,14,o),
(369,41,cs),
(369,131,o),
(221,395,o),
(332,395,c)
);
}
);
width = 936;
}
);
unicode = 78;
},
{
color = 10;
glyphname = O;
lastChange = "2023-10-30 03:08:49 +0000";
layers = (
{
backgroundImage = {
imagePath = O.png;
locked = 1;
pos = (-325,-779);
scale = (3.2164,3.2164);
};
layerId = "49F060A0-2273-4F54-8B81-08E0B15B03EC";
shapes = (
{
closed = 1;
nodes = (
(665,-13,o),
(850,166,o),
(850,404,cs),
(850,631,o),
(665,813,o),
(447,813,cs),
(229,813,o),
(30,631,o),
(30,401,cs),
(30,166,o),
(229,-13,o),
(439,-13,cs)
);
},
{
closed = 1;
nodes = (
(350,52,o),
(288,132,o),
(288,242,cs),
(288,352,o),
(350,431,o),
(440,431,cs),
(530,431,o),
(592,352,o),
(592,242,cs),
(592,132,o),
(530,52,o),
(440,52,cs)
);
}
);
width = 880;
}
);
unicode = 79;
},
{
glyphname = Ohungarumlaut;
lastChange = "2023-10-30 14:45:29 +0000";
layers = (
{
layerId = "49F060A0-2273-4F54-8B81-08E0B15B03EC";
shapes = (
{
closed = 1;
nodes = (
(661,-13,o),
(850,166,o),
(850,400,cs),
(850,632,o),
(665,813,o),
(447,813,cs),
(229,813,o),
(30,632,o),
(30,399,cs),
(30,166,o),
(228,-13,o),
(445,-13,cs)
);
},
{
closed = 1;
nodes = (
(350,52,o),
(288,132,o),
(288,242,cs),
(288,352,o),
(350,431,o),
(440,431,cs),
(530,431,o),
(592,352,o),
(592,242,cs),
(592,132,o),
(530,52,o),
(440,52,cs)
);
},
{
closed = 1;
nodes = (
(270,869,o),
(372,958,o),
(460,1067,cs),
(521,1143,o),
(530,1172,o),
(503,1191,cs),
(477,1209,o),
(449,1197,o),
(384,1126,cs),
(281,1014,o),
(222,905,o),
(253,895,c)
);
},
{
closed = 1;
nodes = (
(510,870,o),
(609,954,o),
(698,1064,cs),
(760,1140,o),
(771,1172,o),
(743,1191,cs),
(715,1210,o),
(684,1193,o),
(620,1122,cs),
(520,1011,o),
(464,907,o),
(493,895,c)
);
}
);
width = 880;
}
);
unicode = 336;
},
{
glyphname = Omacron;
lastChange = "2023-10-30 14:45:39 +0000";
layers = (
{
layerId = "49F060A0-2273-4F54-8B81-08E0B15B03EC";
shapes = (
{
closed = 1;
nodes = (
(661,-13,o),
(850,166,o),
(850,400,cs),
(850,632,o),
(665,813,o),
(447,813,cs),
(229,813,o),
(30,632,o),
(30,399,cs),
(30,166,o),
(228,-13,o),
(445,-13,cs)
);
},
{
closed = 1;
nodes = (
(350,52,o),
(288,132,o),
(288,242,cs),
(288,352,o),
(350,431,o),
(440,431,cs),
(530,431,o),
(592,352,o),
(592,242,cs),
(592,132,o),
(530,52,o),
(440,52,cs)
);
},
{
closed = 1;
nodes = (
(198,877,o),
(314,854,o),
(500,854,cs),
(646,854,o),
(702,868,o),
(702,916,cs),
(702,963,o),
(646,978,o),
(502,978,cs),
(332,978,o),
(198,957,o),
(198,916,cs)
);
}
);
width = 880;
}
);
unicode = 332;
},
{
glyphname = Oslash;
lastChange = "2023-10-30 14:45:52 +0000";
layers = (
{
layerId = "49F060A0-2273-4F54-8B81-08E0B15B03EC";
shapes = (
{
closed = 1;
nodes = (
(666,-13,o),
(855,166,o),
(855,400,cs),
(855,632,o),
(670,813,o),
(452,813,cs),
(234,813,o),
(35,632,o),
(35,399,cs),
(35,166,o),
(233,-13,o),
(450,-13,cs)
);
},
{
closed = 1;
nodes = (
(355,52,o),
(293,132,o),
(293,242,cs),
(293,352,o),
(355,431,o),
(445,431,cs),
(535,431,o),
(597,352,o),
(597,242,cs),
(597,132,o),
(535,52,o),
(445,52,cs)
);
},
{
closed = 1;
nodes = (
(169,-60,o),
(516,133,o),
(715,280,cs),
(863,389,o),
(947,486,o),
(893,555,cs),
(839,624,o),
(721,569,o),
(580,469,cs),
(382,328,o),
(82,57,o),
(134,-1,c)
);
}
);
width = 944;
}
);
unicode = 216;
},
{
glyphname = OE;
lastChange = "2023-10-30 18:01:35 +0000";
layers = (
{
layerId = "49F060A0-2273-4F54-8B81-08E0B15B03EC";
shapes = (
{
closed = 1;
nodes = (
(661,-13,o),
(850,166,o),
(850,400,cs),
(850,632,o),
(665,813,o),
(447,813,cs),
(229,813,o),
(30,632,o),
(30,399,cs),
(30,166,o),
(228,-13,o),
(445,-13,cs)
);
},
{
closed = 1;
nodes = (
(350,52,o),
(288,132,o),
(288,242,cs),
(288,352,o),
(350,431,o),
(440,431,cs),
(530,431,o),
(592,352,o),
(592,242,cs),
(592,132,o),
(530,52,o),
(440,52,cs)
);
},
{
closed = 1;
nodes = (
(1225,133,o),
(1214,124,o),
(1188,107,cs),
(1141,76,o),
(1081,43,o),
(1013,43,cs),
(915,43,o),
(859,113,o),
(859,234,cs),
(859,344,o),
(906,450,o),
(1024,432,cs),
(1064,426,o),
(1104,422,o),
(1123,418,cs),
(1142,414,o),
(1164,410,o),
(1190,410,cs),
(1284,410,o),
(1333,460,o),
(1333,559,cs),
(1333,708,o),
(1223,807,o),
(1031,807,cs),
(766,807,o),
(601,619,o),
(601,389,cs),
(601,143,o),
(789,-15,o),
(1002,-15,cs),
(1139,-15,o),
(1239,50,o),
(1272,92,cs),
(1283,106,o),
(1289,121,o),
(1281,135,cs),
(1271,152,o),
(1251,148,o),
(1235,139,cs)
);
},
{
closed = 1;
nodes = (
(843,202,o),
(873,213,o),
(913,213,cs),
(961,213,o),
(1024,198,o),
(1072,198,cs),
(1113,198,o),
(1143,209,o),
(1143,248,cs),
(1143,287,o),
(1113,298,o),
(1072,298,cs),
(1024,298,o),
(962,284,o),
(914,284,cs),
(873,284,o),
(843,294,o),
(843,333,c),
(843,163,l)
);
}
);
width = 1353;
}
);
unicode = 338;
},
{
color = 10;
glyphname = P;
lastChange = "2023-10-30 18:03:05 +0000";
layers = (
{
layerId = "49F060A0-2273-4F54-8B81-08E0B15B03EC";
shapes = (
{
closed = 1;
locked = 1;
nodes = (
(344,-18,o),
(356,1,o),
(356,28,cs),
(356,60,o),
(338,101,o),
(338,128,cs),
(338,171,o),
(389,174,o),
(432,174,cs),
(457,174,o),
(530,173,o),
(545,173,cs),
(716,173,o),
(849,301,o),
(849,465,cs),
(849,634,o),
(705,808,o),
(429,808,cs),
(186,808,o),
(29,674,o),
(29,467,cs),
(29,298,o),
(134,75,o),
(271,-2,cs),
(294,-15,o),
(309,-18,o),
(319,-18,cs)
);
},
{
closed = 1;
nodes = (
(434,241,o),
(403,241,cs),
(337,241,o),
(314,275,o),
(314,333,cs),
(314,407,o),
(377,432,o),
(435,432,cs),
(511,432,o),
(564,388,o),
(564,331,cs),
(564,312,o),
(558,290,o),
(545,277,cs),
(510,242,o)
);
}
);
width = 865;
}
);
unicode = 80;
},
{
color = 10;
glyphname = Q;
lastChange = "2023-10-30 18:03:45 +0000";
layers = (
{
layerId = "49F060A0-2273-4F54-8B81-08E0B15B03EC";
shapes = (
{
closed = 1;
nodes = (
(661,-13,o),
(850,166,o),
(850,400,cs),
(850,632,o),
(665,813,o),
(447,813,cs),
(229,813,o),
(30,632,o),
(30,399,cs),
(30,166,o),
(228,-13,o),
(445,-13,cs)
);
},
{
closed = 1;
nodes = (
(350,52,o),
(288,132,o),
(288,242,cs),
(288,352,o),
(350,431,o),
(440,431,cs),
(530,431,o),
(592,352,o),
(592,242,cs),
(592,132,o),
(530,52,o),
(440,52,cs)
);
},
{
closed = 1;
locked = 1;
nodes = (
(706,179,o),
(623,85,o),
(602,60,c),
(649,26,o),
(700,0,o),
(749,-9,cs),
(775,-14,o),
(789,-13,o),
(797,-10,cs),
(820,-1,o),
(828,20,o),
(819,47,cs),
(809,77,o),
(784,101,o),
(771,136,cs),
(766,152,o),
(753,183,o),
(741,216,c)
);
}
);
width = 880;
}
);
unicode = 81;
},
{
color = 10;
glyphname = R;
lastChange = "2023-10-30 18:50:18 +0000";
layers = (
{
backgroundImage = {
imagePath = R.png;
locked = 1;
pos = (-362,-801);
scale = (3.3099,3.3099);
};
layerId = "49F060A0-2273-4F54-8B81-08E0B15B03EC";
shapes = (
{
closed = 1;
nodes = (
(344,-15,o),
(356,4,o),
(356,31,cs),
(356,63,o),
(338,104,o),
(338,131,cs),
(338,174,o),
(389,177,o),
(432,177,cs),
(457,177,o),
(530,176,o),
(545,176,cs),
(716,176,o),
(849,304,o),
(849,468,cs),
(849,637,o),
(705,811,o),
(429,811,cs),
(186,811,o),
(29,677,o),
(29,470,cs),
(29,301,o),
(134,78,o),
(271,1,cs),
(294,-12,o),
(309,-15,o),
(319,-15,cs)
);
},
{
closed = 1;
nodes = (
(616,1,o),
(623,-3,o),
(630,-3,cs),
(649,-3,o),
(667,33,o),
(667,145,cs),
(667,181,o),
(688,209,o),
(721,228,c),
(694,263,l),
(659,257,o),
(485,219,o),
(419,209,c),
(415,202,o),
(409,192,o),
(399,176,c),
(455,176,o),
(496,135,o),
(510,118,cs),
(540,84,o),
(593,26,o),
(610,8,cs)
);
},
{
closed = 1;
nodes = (
(434,244,o),
(403,244,cs),
(337,244,o),
(308,278,o),
(308,336,cs),
(308,410,o),
(377,435,o),
(435,435,cs),
(511,435,o),
(564,391,o),
(564,334,cs),
(564,315,o),
(558,293,o),
(545,280,cs),
(510,245,o)
);
}
);
width = 868;
}
);
unicode = 82;
},
{
color = 10;
glyphname = S;
lastChange = "2023-10-30 18:11:08 +0000";
layers = (
{
backgroundImage = {
imagePath = S.png;
locked = 1;
pos = (-392,-815);
scale = (3.3476,3.3476);
};
guides = (
{
pos = (328,706);
}
);
hints = (
{
horizontal = 1;
place = (719, -20);
target = down;
type = TopGhost;
}
);
layerId = "49F060A0-2273-4F54-8B81-08E0B15B03EC";
shapes = (
{
closed = 1;
locked = 1;
nodes = (
(296,18,o),
(399,-15,o),
(497,-15,cs),
(674,-15,o),
(731,92,o),
(731,166,cs),
(731,263,o),
(630,316,o),
(425,316,cs),
(348,316,o),
(310,333,o),
(310,368,cs),
(310,409,o),
(367,425,o),
(433,425,cs),
(489,425,o),
(527,419,o),
(554,413,cs),
(572,409,o),
(597,405,o),
(624,405,cs),
(719,405,o),
(768,457,o),
(768,559,cs),
(768,710,o),
(661,811,o),
(447,811,cs),
(113,811,o),
(26,566,o),
(26,423,cs),
(26,253,o),
(149,170,o),
(442,170,cs),
(476,170,o),
(490,164,o),
(490,150,cs),
(490,119,o),
(421,118,o),
(349,118,cs),
(255,118,o),
(221,105,o),
(254,67,cs)
);
}
);
width = 794;
}
);
unicode = 83;
},
{
color = 10;
glyphname = T;
lastChange = "2023-10-30 18:12:25 +0000";
layers = (
{
layerId = "49F060A0-2273-4F54-8B81-08E0B15B03EC";
shapes = (
{
closed = 1;
locked = 1;
nodes = (
(405,-17,o),
(353,63,o),
(353,222,cs),
(353,396,o),
(171,403,o),
(114,403,cs),
(31,403,o),
(10,488,o),
(10,549,cs),
(10,720,o),
(173,809,o),
(455,809,cs),
(736,809,o),
(899,720,o),
(899,549,cs),
(899,488,o),
(878,403,o),
(795,403,cs),
(737,403,o),
(556,396,o),
(556,222,cs),
(556,63,o),
(503,-17,o),
(454,-17,cs)
);
}
);
width = 909;
}
);
unicode = 84;
},
{
color = 10;
glyphname = U;
lastChange = "2023-10-30 18:12:35 +0000";
layers = (
{
layerId = "49F060A0-2273-4F54-8B81-08E0B15B03EC";
shapes = (
{
closed = 1;
locked = 1;
nodes = (
(368,367,o),
(317,417,o),
(317,513,cs),
(317,604,o),
(363,696,o),
(363,761,cs),
(363,793,o),
(352,812,o),
(327,812,cs),
(315,812,o),
(300,808,o),
(280,797,cs),
(136,719,o),
(35,484,o),
(35,332,cs),
(35,132,o),
(209,-14,o),
(446,-14,cs),
(683,-14,o),
(857,132,o),
(857,332,cs),
(857,484,o),
(756,719,o),
(612,797,cs),
(592,808,o),
(577,812,o),
(565,812,cs),
(540,812,o),
(529,793,o),
(529,761,cs),
(529,696,o),
(575,604,o),
(575,513,cs),
(575,417,o),
(524,367,o),
(446,367,cs)
);
}
);
width = 892;
}
);
unicode = 85;
},
{
color = 10;
glyphname = V;
lastChange = "2023-10-30 18:12:54 +0000";
layers = (
{
layerId = "49F060A0-2273-4F54-8B81-08E0B15B03EC";
shapes = (
{
closed = 1;
locked = 1;
nodes = (
(222,-14,o),
(30,211,o),
(30,475,cs),
(30,716,o),
(191,807,o),
(299,807,cs),
(366,807,o),
(412,772,o),
(412,704,cs),
(412,626,o),
(353,507,o),
(332,435,cs),
(320,394,o),
(315,350,o),
(315,302,cs),
(315,147,o),
(368,37,o),
(441,37,cs),
(513,37,o),
(566,147,o),
(566,301,cs),
(566,353,o),
(560,398,o),
(550,434,cs),
(530,507,o),
(470,626,o),
(470,704,cs),
(470,773,o),
(516,807,o),
(583,807,cs),
(692,807,o),
(852,715,o),
(852,474,cs),
(852,211,o),
(660,-14,o),
(441,-14,cs)
);
}
);
width = 882;
}
);
unicode = 86;
},
{
color = 10;
glyphname = W;
lastChange = "2023-10-30 17:58:43 +0000";
layers = (
{
layerId = "49F060A0-2273-4F54-8B81-08E0B15B03EC";
shapes = (
{
closed = 1;
locked = 1;
nodes = (
(432,48,o),
(387,-15,o),
(298,-15,cs),
(183,-15,o),
(25,93,o),
(25,311,cs),
(25,346,o),
(29,381,o),
(39,424,cs),
(78,592,o),
(180,742,o),
(270,794,cs),
(294,808,o),
(311,811,o),
(320,811,cs),
(345,811,o),
(357,790,o),
(357,764,cs),
(357,716,o),
(316,635,o),
(316,500,cs),
(316,398,o),
(339,359,o),
(399,359,c),
(399,697,o),
(415,810,o),
(462,810,cs),
(509,810,o),
(525,697,o),
(525,359,c),
(585,359,o),
(608,398,o),
(608,500,cs),
(608,635,o),
(567,716,o),
(567,764,cs),
(567,790,o),
(579,811,o),
(604,811,cs),
(613,811,o),
(630,808,o),
(654,794,cs),
(744,742,o),
(846,592,o),
(885,424,cs),
(895,381,o),
(899,346,o),
(899,311,cs),
(899,93,o),
(741,-15,o),
(626,-15,cs),
(537,-15,o),
(492,48,o),
(462,119,c)
);
}
);
width = 924;
}
);
unicode = 87;
},
{
color = 10;
glyphname = X;
lastChange = "2023-10-30 18:14:24 +0000";
layers = (
{
backgroundImage = {
imagePath = X.png;
locked = 1;
pos = (-335,-875);
scale = (3.5313,3.5313);
};
layerId = "49F060A0-2273-4F54-8B81-08E0B15B03EC";
shapes = (
{
closed = 1;
locked = 1;
nodes = (
(1004,429,o),
(1062,481,o),
(1062,588,cs),
(1062,733,o),
(954,811,o),
(802,811,cs),
(564,811,o),
(468,616,o),
(468,425,cs),
(468,353,o),
(482,282,o),
(519,211,cs),
(596,63,o),
(741,-13,o),
(879,-13,cs),
(911,-13,o),
(925,-9,o),
(935,-1,cs),
(945,7,o),
(948,18,o),
(948,27,cs),
(948,35,o),
(945,47,o),
(939,57,cs),
(917,89,o),
(816,122,o),
(752,194,cs),
(725,223,o),
(702,261,o),
(702,301,cs),
(702,363,o),
(758,429,o),
(897,429,cs)
);
},
{
closed = 1;
nodes = (
(10,483,o),
(68,429,o),
(175,429,cs),
(314,429,o),
(370,365,o),
(370,303,cs),
(370,263,o),
(347,225,o),
(320,196,cs),
(256,124,o),
(155,91,o),
(133,59,cs),
(127,49,o),
(124,37,o),
(124,29,cs),
(124,20,o),
(127,10,o),
(137,1,cs),
(147,-7,o),
(161,-11,o),
(193,-11,cs),
(331,-11,o),
(476,65,o),
(553,213,cs),
(590,284,o),
(604,355,o),
(604,427,cs),
(604,619,o),
(508,813,o),
(270,813,cs),
(118,813,o),
(10,735,o),
(10,590,cs)
);
}
);
width = 1072;
}
);
unicode = 88;
},
{
color = 10;
glyphname = Y;
lastChange = "2023-10-30 18:19:13 +0000";
layers = (
{
layerId = "49F060A0-2273-4F54-8B81-08E0B15B03EC";
shapes = (
{
closed = 1;
locked = 1;
nodes = (
(187,11,o),
(283,-17,o),
(390,-17,cs),
(789,-17,o),
(861,304,o),
(861,483,cs),
(861,689,o),
(765,811,o),
(609,811,cs),
(519,811,o),
(489,770,o),
(489,693,cs),
(489,628,o),
(532,557,o),
(551,470,cs),
(579,343,o),
(535,266,o),
(438,266,cs),
(339,266,o),
(281,346,o),
(318,470,cs),
(344,557,o),
(352,577,o),
(363,612,cs),
(379,664,o),
(409,812,o),
(262,812,cs),
(98,812,o),
(20,627,o),
(20,478,cs),
(20,295,o),
(138,170,o),
(323,170,cs),
(414,170,o),
(500,169,o),
(500,131,cs),
(500,92,o),
(479,81,o),
(389,81,cs),
(304,81,o),
(156,135,o),
(113,102,cs),
(104,95,o),
(103,86,o),
(103,79,cs),
(103,67,o),
(114,57,o),
(133,45,cs)
);
}
);
width = 896;
}
);
unicode = 89;
},
{
color = 10;
glyphname = Z;
lastChange = "2023-10-30 18:20:12 +0000";
layers = (
{
backgroundImage = {
imagePath = Scan.png;
locked = 1;
pos = (-430,-905);
scale = (3.581,3.581);
};
layerId = "49F060A0-2273-4F54-8B81-08E0B15B03EC";
shapes = (
{
closed = 1;
locked = 1;
nodes = (
(651,309,o),
(778,451,o),
(778,594,cs),
(778,734,o),
(656,812,o),
(437,812,cs),
(178,812,o),
(18,703,o),
(18,528,cs),
(18,417,o),
(83,332,o),
(181,332,cs),
(240,332,o),
(326,369,o),
(376,369,cs),
(399,369,o),
(413,362,o),
(413,341,cs),
(413,309,o),
(378,291,o),
(344,275,cs),
(166,192,o),
(124,153,o),
(124,104,cs),
(124,18,o),
(261,-14,o),
(364,-14,cs),
(449,-14,o),
(570,8,o),
(607,66,cs),
(614,77,o),
(617,87,o),
(617,95,cs),
(617,120,o),
(592,131,o),
(543,131,cs),
(514,131,o),
(500,127,o),
(465,127,cs),
(424,127,o),
(373,127,o),
(373,146,cs),
(373,153,o),
(379,159,o),
(391,165,c)
);
}
);
width = 794;
}
);
unicode = 90;
},
{
color = 10;
glyphname = a;
lastChange = "2023-10-30 18:22:33 +0000";
layers = (
{
backgroundImage = {
imagePath = "Scan 14.png";
locked = 1;
pos = (-342,-812);
scale = (2.3783,2.3783);
};
layerId = "49F060A0-2273-4F54-8B81-08E0B15B03EC";
shapes = (
{
closed = 1;
locked = 1;
nodes = (
(525,-16,o),
(561,116,o),
(561,268,cs),
(561,491,o),
(483,612,o),
(280,612,cs),
(116,612,o),
(30,533,o),
(30,414,cs),
(30,334,o),
(69,286,o),
(140,286,cs),
(184,286,o),
(229,304,o),
(297,304,cs),
(342,304,o),
(361,296,o),
(361,278,cs),
(361,251,o),
(319,251,o),
(284,251,cs),
(153,251,o),
(74,218,o),
(74,128,cs),
(74,44,o),
(142,-13,o),
(250,-13,cs),
(334,-13,o),
(371,21,o),
(398,81,c),
(418,12,o),
(440,-16,o),
(467,-16,cs)
);
},
{
closed = 1;
nodes = (
(293,85,o),
(285,127,o),
(285,154,cs),
(285,188,o),
(308,193,o),
(376,193,c),
(379,174,o),
(383,143,o),
(387,122,c),
(377,90,o),
(345,85,o),
(326,85,cs)
);
},
{
closed = 0;
nodes = (
(376,193,l)
);
}
);
width = 601;
}
);
locked = 1;
unicode = 97;
},
{
glyphname = aring;
lastChange = "2023-10-30 18:22:41 +0000";
layers = (
{
layerId = "49F060A0-2273-4F54-8B81-08E0B15B03EC";
shapes = (
{
closed = 1;
nodes = (
(348,641,o),
(392,685,o),
(392,746,cs),
(392,806,o),
(348,850,o),
(288,850,cs),
(227,850,o),
(183,806,o),
(183,746,cs),
(183,685,o),
(227,641,o),
(288,641,cs)
);
},
{
closed = 1;
nodes = (
(261,669,o),
(243,686,o),
(243,713,cs),
(243,739,o),
(261,757,o),
(288,757,cs),
(314,757,o),
(332,739,o),
(332,713,cs),
(332,686,o),
(314,669,o),
(288,669,cs)
);
},
{
closed = 1;
nodes = (
(525,-16,o),
(561,116,o),
(561,268,cs),
(561,491,o),
(483,612,o),
(280,612,cs),
(116,612,o),
(30,533,o),
(30,414,cs),
(30,334,o),
(69,286,o),
(140,286,cs),
(184,286,o),
(229,304,o),
(297,304,cs),
(342,304,o),
(361,296,o),
(361,278,cs),
(361,251,o),
(319,251,o),
(284,251,cs),
(153,251,o),
(74,218,o),
(74,128,cs),
(74,44,o),
(142,-13,o),
(250,-13,cs),
(334,-13,o),
(371,21,o),
(398,81,c),
(418,12,o),
(440,-16,o),
(467,-16,cs)
);
},
{
closed = 1;
nodes = (
(293,85,o),
(285,127,o),
(285,154,cs),
(285,188,o),
(308,193,o),
(376,193,c),
(379,174,o),
(383,143,o),
(387,122,c),
(377,90,o),
(345,85,o),
(326,85,cs)
);
},
{
closed = 0;
nodes = (
(376,193,l)
);
}
);
width = 600;
}
);
unicode = 229;
},
{
color = 10;
glyphname = b;
lastChange = "2023-10-30 18:23:37 +0000";
layers = (
{
hints = (
{
horizontal = 1;
place = (693, 41);
place = (693, 41);
type = Stem;
}
);
layerId = "49F060A0-2273-4F54-8B81-08E0B15B03EC";
shapes = (
{
closed = 1;
locked = 1;
nodes = (
(257,23,o),
(310,-13,o),
(384,-13,cs),
(459,-13,o),
(541,24,o),
(593,124,cs),
(641,217,o),
(643,326,o),
(631,398,cs),
(614,501,o),
(554,613,o),
(383,613,cs),
(311,613,o),
(257,593,o),
(217,558,c),
(253,232,l),
(336,232,o),
(365,226,o),
(365,187,cs),
(365,149,o),
(353,97,o),
(314,97,cs),
(294,97,o),
(252,102,o),
(239,144,c),
(207,88,l)
);
},
{
closed = 1;
nodes = (
(244,-14,o),
(284,308,o),
(284,521,cs),
(284,693,o),
(258,814,o),
(165,814,cs),
(72,814,o),
(45,693,o),
(45,526,cs),
(45,306,o),
(92,-14,o),
(164,-14,c)
);
}
);
width = 671;
}
);
unicode = 98;
},
{
color = 10;
glyphname = c;
lastChange = "2023-10-30 18:24:41 +0000";
layers = (
{
layerId = "49F060A0-2273-4F54-8B81-08E0B15B03EC";
shapes = (
{
closed = 1;
nodes = (
(275,28,o),
(232,84,o),
(232,177,cs),
(232,266,o),
(272,328,o),
(346,328,cs),
(403,328,o),
(440,311,o),
(486,311,cs),
(558,311,o),
(596,349,o),
(596,425,cs),
(596,540,o),
(511,614,o),
(364,614,cs),
(160,614,o),
(34,472,o),
(34,294,cs),
(34,108,o),
(172,-15,o),
(354,-15,cs),
(406,-15,o),
(442,-5,o),
(442,16,cs),
(442,27,o),
(431,31,o),
(414,31,cs),
(400,31,o),
(385,28,o),
(364,28,cs)
);
}
);
width = 620;
}
);
locked = 1;
unicode = 99;
},
{
color = 10;
glyphname = d;
lastChange = "2023-10-30 18:25:52 +0000";
layers = (
{
backgroundImage = {
angle = -4;
imagePath = "Scan 13.png";
locked = 1;
pos = (-524,-698);
scale = (3.1411,3.1411);
};
layerId = "49F060A0-2273-4F54-8B81-08E0B15B03EC";
shapes = (
{
closed = 1;
nodes = (
(432,144,l),
(419,102,o),
(377,97,o),
(357,97,cs),
(318,97,o),
(306,149,o),
(306,187,cs),
(306,226,o),
(335,232,o),
(418,232,c),
(454,558,l),
(414,593,o),
(360,613,o),
(288,613,cs),
(117,613,o),
(57,501,o),
(40,398,cs),
(28,326,o),
(30,217,o),
(78,124,cs),
(130,24,o),
(212,-13,o),
(287,-13,cs),
(361,-13,o),
(414,23,o),
(464,88,c)
);
},
{
closed = 1;
nodes = (
(579,-14,o),
(626,306,o),
(626,526,cs),
(626,693,o),
(599,814,o),
(506,814,cs),
(413,814,o),
(387,693,o),
(387,521,cs),
(387,308,o),
(427,-14,o),
(507,-14,c)
);
}
);
width = 671;
}
);
unicode = 100;
},
{
glyphname = dcaron;
lastChange = "2023-10-30 18:27:58 +0000";
layers = (
{
layerId = "49F060A0-2273-4F54-8B81-08E0B15B03EC";
shapes = (
{
closed = 1;
nodes = (
(668,815,o),
(658,783,o),
(658,685,cs),
(658,672,o),
(659,613,o),
(681,613,cs),
(724,613,o),
(752,663,o),
(752,732,cs),
(752,800,o),
(733,815,o),
(692,815,cs)
);
},
{
closed = 1;
nodes = (
(432,144,l),
(419,102,o),
(377,97,o),
(357,97,cs),
(318,97,o),
(306,149,o),
(306,187,cs),
(306,226,o),
(335,232,o),
(418,232,c),
(454,558,l),
(414,593,o),
(360,613,o),
(288,613,cs),
(117,613,o),
(57,501,o),
(40,398,cs),
(28,326,o),
(30,217,o),
(78,124,cs),
(130,24,o),
(212,-13,o),
(287,-13,cs),
(361,-13,o),
(414,23,o),
(464,88,c)
);
},
{
closed = 1;
nodes = (
(579,-14,o),
(626,306,o),
(626,526,cs),
(626,693,o),
(599,814,o),
(506,814,cs),
(413,814,o),
(387,693,o),
(387,521,cs),
(387,308,o),
(427,-14,o),
(507,-14,c)
);
}
);
width = 776;
}
);
unicode = 271;
},
{
color = 10;
glyphname = e;
lastChange = "2023-10-30 15:00:44 +0000";
layers = (
{
backgroundImage = {
imagePath = "Scan 1.png";
locked = 1;
pos = (-398,-872);
scale = (2.5776,2.5776);
};
layerId = "49F060A0-2273-4F54-8B81-08E0B15B03EC";
shapes = (
{
closed = 1;
nodes = (
(299,168,o),
(350,166,o),
(393,170,cs),
(548,185,o),
(605,278,o),
(605,408,cs),
(605,555,o),
(532,615,o),
(384,615,cs),
(161,615,o),
(40,475,o),
(40,298,cs),
(40,106,o),
(181,-15,o),
(361,-15,cs),
(407,-15,o),
(450,-7,o),
(450,16,cs),
(450,27,o),
(439,31,o),
(422,31,cs),
(408,31,o),
(393,28,o),
(372,28,cs),
(282,28,o),
(240,85,o),
(240,177,c)
);
},
{
closed = 1;
nodes = (
(391,236,o),
(369,222,o),
(321,222,cs),
(272,222,o),
(250,236,o),
(250,267,cs),
(250,297,o),
(272,311,o),
(321,311,cs),
(369,311,o),
(391,297,o),
(391,267,cs)
);
}
);
width = 639;
}
);
unicode = 101;
},
{
color = 10;
glyphname = f;
lastChange = "2023-10-30 15:01:46 +0000";
layers = (
{
layerId = "49F060A0-2273-4F54-8B81-08E0B15B03EC";
shapes = (
{
closed = 1;
nodes = (
(351,-18,o),
(393,17,o),
(393,89,cs),
(393,156,o),
(356,226,o),
(317,358,cs),
(257,562,o),
(270,680,o),
(363,680,cs),
(391,680,o),
(413,669,o),
(431,669,cs),
(451,669,o),
(466,683,o),
(466,708,cs),
(466,761,o),
(403,808,o),
(329,808,cs),
(177,808,o),
(56,610,o),
(18,428,cs),
(9,385,o),
(4,340,o),
(4,298,cs),
(4,106,o),
(111,-18,o),
(268,-18,cs)
);
},
{
closed = 1;
nodes = (
(426,500,o),
(456,511,o),
(456,550,cs),
(456,589,o),
(426,600,o),
(385,600,cs),
(337,600,o),
(275,586,o),
(227,586,c),
(226,515,l),
(274,515,o),
(337,500,o),
(385,500,cs)
);
}
);
width = 438;
}
);
unicode = 102;
},
{
color = 10;
glyphname = g;
lastChange = "2023-10-30 15:02:14 +0000";
layers = (
{
layerId = "49F060A0-2273-4F54-8B81-08E0B15B03EC";
shapes = (
{
closed = 1;
nodes = (
(423,149,l),
(410,108,o),
(368,101,o),
(348,103,cs),
(309,107,o),
(293,154,o),
(297,192,cs),
(301,231,o),
(326,236,o),
(409,237,c),
(445,559,l),
(405,594,o),
(351,614,o),
(279,614,cs),
(108,614,o),
(48,503,o),
(31,401,cs),
(19,330,o),
(21,222,o),
(69,130,cs),
(121,31,o),
(203,-6,o),
(278,-6,cs),
(352,-6,o),
(405,30,o),
(455,94,c)
);
},
{
closed = 1;
nodes = (
(389,290,o),
(413,-77,o),
(333,-77,cs),
(319,-77,o),
(293,-66,o),
(280,-66,cs),
(265,-66,o),
(252,-79,o),
(252,-103,cs),
(252,-148,o),
(295,-201,o),
(375,-201,cs),
(570,-201,o),
(628,116,o),
(628,336,cs),
(628,492,o),
(599,614,o),
(507,614,cs),
(411,614,o),
(389,479,o),
(389,318,cs)
);
}
);
width = 663;
}
);
unicode = 103;
},
{
color = 10;
glyphname = h;
lastChange = "2023-10-30 15:02:44 +0000";
layers = (
{
backgroundImage = {
imagePath = "Scan 11.png";
locked = 1;
pos = (-431,-748);
scale = (3.0475,3.0475);
};
layerId = "49F060A0-2273-4F54-8B81-08E0B15B03EC";
shapes = (
{
closed = 1;
nodes = (
(577,-12,o),
(646,231,o),
(661,317,cs),
(690,479,o),
(622,613,o),
(506,613,cs),
(331,613,o),
(222,306,o),
(202,243,cs),
(195,221,o),
(193,210,o),
(193,196,cs),
(193,186,o),
(194,177,o),
(201,167,cs),
(206,160,o),
(211,156,o),
(217,156,cs),
(231,156,o),
(245,179,o),
(262,199,cs),
(279,219,o),
(303,242,o),
(342,242,cs),
(360,242,o),
(375,237,o),
(386,225,cs),
(413,196,o),
(416,128,o),
(426,74,cs),
(437,13,o),
(455,-12,o),
(485,-12,cs)
);
},
{
closed = 1;
nodes = (
(256,-14,o),
(307,217,o),
(307,492,cs),
(307,707,o),
(276,812,o),
(180,812,cs),
(83,812,o),
(45,707,o),
(45,480,cs),
(45,218,o),
(96,-14,o),
(176,-14,c)
);
}
);
width = 702;
}
);
unicode = 104;
},
{
color = 10;
glyphname = i;
lastChange = "2023-10-30 15:03:09 +0000";
layers = (
{
layerId = "49F060A0-2273-4F54-8B81-08E0B15B03EC";
shapes = (
{
closed = 1;
nodes = (
(267,-15,o),
(319,226,o),
(319,412,cs),
(319,526,o),
(287,616,o),
(186,616,cs),
(83,616,o),
(50,526,o),
(50,412,cs),
(50,226,o),
(95,-15,o),
(186,-15,c)
);
},
{
closed = 1;
nodes = (
(108,694,o),
(136,668,o),
(184,668,cs),
(232,668,o),
(260,694,o),
(260,740,cs),
(260,785,o),
(232,810,o),
(184,810,cs),
(136,810,o),
(108,785,o),
(108,740,cs)
);
}
);
width = 369;
}
);
unicode = 105;
},
{
color = 10;
glyphname = j;
lastChange = "2023-10-30 15:15:45 +0000";
layers = (
{
guides = (
{
pos = (-41,715);
}
);
layerId = "49F060A0-2273-4F54-8B81-08E0B15B03EC";
shapes = (
{
closed = 1;
nodes = (
(15,-73,o),
(-11,-62,o),
(-27,-62,cs),
(-45,-62,o),
(-60,-65,o),
(-60,-90,cs),
(-60,-140,o),
(0,-200,o),
(69,-200,cs),
(199,-200,o),
(317,-51,o),
(367,179,cs),
(376,214,o),
(381,260,o),
(381,292,cs),
(381,494,o),
(279,611,o),
(130,611,cs),
(49,611,o),
(10,578,o),
(10,507,cs),
(10,446,o),
(33,404,o),
(82,244,cs),
(143,42,o),
(125,-73,o),
(36,-73,cs)
);
},
{
closed = 1;
nodes = (
(65,696,o),
(93,670,o),
(141,670,cs),
(189,670,o),
(217,696,o),
(217,742,cs),
(217,787,o),
(189,812,o),
(141,812,cs),
(93,812,o),
(65,787,o),
(65,742,cs)
);
}
);
width = 416;
}
);
unicode = 106;
},
{
color = 10;
glyphname = k;
lastChange = "2023-10-30 15:05:15 +0000";
layers = (
{
layerId = "49F060A0-2273-4F54-8B81-08E0B15B03EC";
shapes = (
{
closed = 1;
nodes = (
(588,-12,o),
(668,281,o),
(668,402,cs),
(668,507,o),
(608,613,o),
(507,613,cs),
(334,613,o),
(217,301,o),
(201,242,cs),
(191,205,o),
(192,156,o),
(216,156,cs),
(232,156,o),
(245,179,o),
(262,199,cs),
(279,219,o),
(303,242,o),
(342,242,cs),
(360,242,o),
(375,237,o),
(386,225,cs),
(413,196,o),
(416,128,o),
(426,74,cs),
(437,13,o),
(455,-12,o),
(485,-12,cs)
);
},
{
closed = 1;
nodes = (
(256,-14,o),
(307,217,o),
(307,492,cs),
(307,707,o),
(276,812,o),
(180,812,cs),
(83,812,o),
(45,707,o),
(45,480,cs),
(45,218,o),
(96,-14,o),
(176,-14,c)
);
},
{
closed = 1;
nodes = (
(76,392,cs),
(63,373,o),
(59,357,o),
(59,343,cs),
(59,315,o),
(74,292,o),
(101,274,cs),
(129,256,o),
(167,244,o),
(209,244,cs),
(275,244,o),
(351,273,o),
(409,353,cs),
(425,375,o),
(440,401,o),
(454,434,cs),
(481,498,o),
(498,576,o),
(498,642,cs),
(498,687,o),
(490,730,o),
(475,762,cs),
(467,779,o),
(454,800,o),
(435,800,cs),
(421,800,o),
(413,788,o),
(405,774,cs),
(351,679,o),
(345,611,o),
(260,536,cs),
(192,476,o),
(114,448,o)
);
}
);
width = 693;
}
);
unicode = 107;
},
{
color = 10;
glyphname = l;
lastChange = "2023-10-30 15:06:17 +0000";
layers = (
{
layerId = "49F060A0-2273-4F54-8B81-08E0B15B03EC";
shapes = (
{
closed = 1;
nodes = (
(269,111,l),
(304,226,o),
(325,400,o),
(325,546,cs),
(325,694,o),
(289,814,o),
(183,814,cs),
(76,814,o),
(40,694,o),
(40,546,cs),
(40,305,o),
(88,-13,o),
(210,-12,cs),
(305,-13,o),
(365,33,o),
(365,83,cs),
(365,108,o),
(350,121,o),
(332,121,cs),
(316,121,o),
(290,110,o),
(269,110,c)
);
}
);
width = 365;
}
);
unicode = 108;
},
{
color = 10;
glyphname = m;
lastChange = "2023-10-30 15:27:26 +0000";
layers = (
{
layerId = "49F060A0-2273-4F54-8B81-08E0B15B03EC";
shapes = (
{
closed = 1;
nodes = (
(251,-14,o),
(302,161,o),
(302,370,cs),
(302,533,o),
(271,613,o),
(175,613,cs),
(78,613,o),
(40,533,o),
(40,361,cs),
(40,162,o),
(91,-14,o),
(171,-14,c)
);
},
{
closed = 1;
nodes = (
(553,-14,o),
(665,206,o),
(665,387,cs),
(665,550,o),
(584,611,o),
(503,611,cs),
(387,611,o),
(257,455,o),
(196,240,cs),
(186,209,o),
(187,154,o),
(212,154,cs),
(217,154,o),
(236,172,o),
(257,197,cs),
(278,222,o),
(312,240,o),
(337,240,cs),
(411,240,o),
(408,146,o),
(421,72,cs),
(430,22,o),
(455,-14,o),
(480,-14,cs)
);
},
{
closed = 1;
nodes = (
(873,-14,o),
(985,206,o),
(985,387,cs),
(985,550,o),
(904,611,o),
(823,611,cs),
(707,611,o),
(577,455,o),
(516,240,cs),
(506,209,o),
(507,154,o),
(532,154,cs),
(537,154,o),
(556,172,o),
(577,197,cs),
(598,222,o),
(632,240,o),
(657,240,cs),
(731,240,o),
(728,146,o),
(741,72,cs),
(750,22,o),
(775,-14,o),
(800,-14,cs)
);
}
);
width = 1024;
}
);
unicode = 109;
},
{
color = 10;
glyphname = n;
lastChange = "2023-10-30 15:26:01 +0000";
layers = (
{
layerId = "49F060A0-2273-4F54-8B81-08E0B15B03EC";
shapes = (
{
closed = 1;
nodes = (
(251,-14,o),
(302,161,o),
(302,370,cs),
(302,533,o),
(271,613,o),
(175,613,cs),
(78,613,o),
(40,533,o),
(40,361,cs),
(40,162,o),
(91,-14,o),
(171,-14,c)
);
},
{
closed = 1;
nodes = (
(553,-15,o),
(665,205,o),
(665,386,cs),
(665,549,o),
(584,610,o),
(503,610,cs),
(387,610,o),
(257,454,o),
(196,239,cs),
(186,208,o),
(187,153,o),
(212,153,cs),
(217,153,o),
(236,171,o),
(257,196,cs),
(278,221,o),
(312,239,o),
(337,239,cs),
(411,239,o),
(408,145,o),
(421,71,cs),
(430,21,o),
(455,-15,o),
(480,-15,cs)
);
}
);
width = 697;
}
);
unicode = 110;
},
{
color = 10;
glyphname = o;
lastChange = "2023-10-30 15:09:01 +0000";
layers = (
{
layerId = "49F060A0-2273-4F54-8B81-08E0B15B03EC";
shapes = (
{
closed = 1;
nodes = (
(146,614,o),
(34,491,o),
(34,300,cs),
(34,111,o),
(149,-12,o),
(326,-12,cs),
(497,-12,o),
(608,110,o),
(608,298,cs),
(608,490,o),
(495,614,o),
(320,614,cs)
);
},
{
closed = 1;
nodes = (
(391,565,o),
(427,517,o),
(427,421,cs),
(427,326,o),
(391,278,o),
(321,278,cs),
(250,278,o),
(214,326,o),
(214,421,cs),
(214,517,o),
(250,565,o),
(321,565,cs)
);
}
);
width = 642;
}
);
unicode = 111;
},
{
color = 10;
glyphname = p;
lastChange = "2023-10-30 18:29:21 +0000";
layers = (
{
layerId = "49F060A0-2273-4F54-8B81-08E0B15B03EC";
shapes = (
{
closed = 1;
nodes = (
(257,23,o),
(310,-13,o),
(384,-13,cs),
(459,-13,o),
(541,24,o),
(593,125,cs),
(641,218,o),
(643,328,o),
(631,400,cs),
(614,503,o),
(554,616,o),
(383,616,cs),
(311,616,o),
(257,596,o),
(217,560,c),
(253,235,l),
(336,235,o),
(364,226,o),
(364,187,cs),
(364,151,o),
(355,104,o),
(316,98,cs),
(296,95,o),
(252,102,o),
(239,144,c),
(207,88,l)
);
},
{
closed = 1;
nodes = (
(244,-201,o),
(284,111,o),
(284,324,cs),
(284,496,o),
(258,614,o),
(165,614,cs),
(72,614,o),
(45,496,o),
(45,329,cs),
(45,109,o),
(92,-201,o),
(164,-201,c)
);
}
);
width = 676;
}
);
unicode = 112;
},
{
color = 10;
glyphname = q;
lastChange = "2023-10-30 18:29:56 +0000";
layers = (
{
layerId = "49F060A0-2273-4F54-8B81-08E0B15B03EC";
shapes = (
{
closed = 1;
nodes = (
(432,142,l),
(419,101,o),
(377,96,o),
(357,96,cs),
(318,96,o),
(307,147,o),
(307,186,cs),
(307,225,o),
(335,232,o),
(418,232,c),
(454,558,l),
(414,594,o),
(360,614,o),
(288,614,cs),
(117,614,o),
(57,501,o),
(40,398,cs),
(28,326,o),
(30,216,o),
(78,123,cs),
(130,23,o),
(212,-15,o),
(287,-15,cs),
(361,-15,o),
(414,21,o),
(464,86,c)
);
},
{
closed = 1;
nodes = (
(579,-199,o),
(626,115,o),
(626,331,cs),
(626,495,o),
(599,614,o),
(506,614,cs),
(413,614,o),
(387,495,o),
(387,326,cs),
(387,117,o),
(427,-199,o),
(507,-199,c)
);
}
);
width = 671;
}
);
locked = 1;
unicode = 113;
},
{
color = 10;
glyphname = r;
lastChange = "2023-10-30 18:31:14 +0000";
layers = (
{
layerId = "49F060A0-2273-4F54-8B81-08E0B15B03EC";
shapes = (
{
closed = 1;
nodes = (
(256,-12,o),
(307,163,o),
(307,372,cs),
(307,535,o),
(276,615,o),
(180,615,cs),
(83,615,o),
(45,535,o),
(45,363,cs),
(45,164,o),
(96,-12,o),
(176,-12,c)
);
},
{
closed = 1;
locked = 1;
nodes = (
(505,244,o),
(564,285,o),
(592,321,cs),
(674,427,o),
(644,615,o),
(516,615,cs),
(353,615,o),
(263,306,o),
(248,244,cs),
(240,210,o),
(230,149,o),
(252,133,cs),
(275,116,o),
(293,179,o),
(298,200,cs),
(314,274,o),
(392,263,o),
(433,256,cs)
);
}
);
width = 638;
}
);
locked = 1;
unicode = 114;
},
{
color = 10;
glyphname = s;
lastChange = "2023-10-30 18:32:14 +0000";
layers = (
{
layerId = "49F060A0-2273-4F54-8B81-08E0B15B03EC";
shapes = (
{
closed = 1;
nodes = (
(384,105,o),
(349,93,o),
(207,93,cs),
(136,93,o),
(155,96,o),
(127,96,cs),
(85,96,o),
(70,89,o),
(70,68,cs),
(70,60,o),
(72,55,o),
(77,47,cs),
(105,3,o),
(161,-14,o),
(268,-14,cs),
(422,-14,o),
(509,21,o),
(509,83,cs),
(509,136,o),
(446,165,o),
(355,206,cs),
(328,218,o),
(302,234,o),
(302,258,cs),
(302,272,o),
(311,278,o),
(330,278,cs),
(370,278,o),
(424,250,o),
(480,250,cs),
(552,250,o),
(602,278,o),
(602,394,cs),
(602,547,o),
(515,613,o),
(312,613,cs),
(113,613,o),
(25,550,o),
(25,421,cs),
(25,298,o),
(106,212,o),
(299,132,c)
);
}
);
width = 627;
}
);
locked = 1;
unicode = 115;
},
{
color = 10;
glyphname = t;
lastChange = "2023-10-30 18:32:56 +0000";
layers = (
{
hints = (
{
horizontal = 1;
place = (-16, 115);
place = (-16, 115);
type = Stem;
},
{
horizontal = 1;
place = (381, 117);
place = (381, 117);
type = Stem;
},
{
horizontal = 1;
place = (383, 115);
place = (383, 115);
type = Stem;
},
{
place = (138, 156);
place = (138, 156);
type = Stem;
},
{
place = (141, 154);
place = (141, 154);
type = Stem;
}
);
layerId = "49F060A0-2273-4F54-8B81-08E0B15B03EC";
shapes = (
{
closed = 1;
nodes = (
(302,113,o),
(292,228,o),
(348,435,cs),
(385,571,o),
(424,636,o),
(424,703,cs),
(424,776,o),
(382,811,o),
(298,811,cs),
(142,811,o),
(35,690,o),
(35,490,cs),
(35,451,o),
(39,414,o),
(49,368,cs),
(98,144,o),
(225,-15,o),
(360,-15,cs),
(434,-15,o),
(497,32,o),
(497,85,cs),
(497,110,o),
(482,124,o),
(462,124,cs),
(444,124,o),
(422,113,o),
(394,113,cs)
);
},
{
closed = 1;
nodes = (
(294,499,o),
(376,480,o),
(438,480,cs),
(492,480,o),
(531,494,o),
(531,546,cs),
(531,596,o),
(492,610,o),
(438,610,cs),
(376,610,o),
(296,592,o),
(232,592,c),
(232,499,l)
);
}
);
width = 536;
}
);
locked = 1;
unicode = 116;
},
{
color = 10;
glyphname = u;
lastChange = "2023-10-30 18:33:48 +0000";
layers = (
{
guides = (
{
pos = (-718,175);
}
);
layerId = "49F060A0-2273-4F54-8B81-08E0B15B03EC";
shapes = (
{
closed = 1;
locked = 1;
nodes = (
(446,612,o),
(395,437,o),
(395,228,cs),
(395,65,o),
(426,-15,o),
(522,-15,cs),
(619,-15,o),
(657,65,o),
(657,237,cs),
(657,436,o),
(606,612,o),
(526,612,c)
);
},
{
closed = 1;
nodes = (
(144,613,o),
(32,393,o),
(32,212,cs),
(32,49,o),
(113,-12,o),
(194,-12,cs),
(310,-12,o),
(440,144,o),
(501,359,cs),
(511,390,o),
(510,445,o),
(485,445,cs),
(480,445,o),
(461,427,o),
(440,402,cs),
(419,377,o),
(385,359,o),
(360,359,cs),
(286,359,o),
(276,450,o),
(276,524,cs),
(276,597,o),
(242,613,o),
(217,613,cs)
);
}
);
width = 697;
}
);
unicode = 117;
},
{
color = 10;
glyphname = v;
lastChange = "2023-10-30 04:12:44 +0000";
layers = (
{
layerId = "49F060A0-2273-4F54-8B81-08E0B15B03EC";
shapes = (
{
closed = 1;
nodes = (
(414,354,o),
(337,354,cs),
(262,354,o),
(236,471,o),
(193,549,cs),
(166,598,o),
(136,627,o),
(102,613,cs),
(14,577,o),
(31,315,o),
(48,224,cs),
(76,73,o),
(180,-12,o),
(337,-12,cs),
(495,-12,o),
(600,75,o),
(626,227,cs),
(642,319,o),
(658,583,o),
(571,613,cs),
(542,623,o),
(510,604,o),
(481,550,cs),
(443,479,o)
);
}
);
width = 673;
}
);
unicode = 118;
},
{
color = 10;
glyphname = w;
lastChange = "2023-10-30 15:32:29 +0000";
layers = (
{
layerId = "49F060A0-2273-4F54-8B81-08E0B15B03EC";
shapes = (
{
closed = 1;
nodes = (
(144,611,o),
(32,391,o),
(32,210,cs),
(32,47,o),
(113,-14,o),
(194,-14,cs),
(310,-14,o),
(440,142,o),
(501,357,cs),
(511,388,o),
(510,443,o),
(485,443,cs),
(480,443,o),
(461,425,o),
(440,400,cs),
(419,375,o),
(385,357,o),
(360,357,cs),
(286,357,o),
(289,451,o),
(276,525,cs),
(267,575,o),
(242,611,o),
(217,611,cs)
);
},
{
closed = 1;
nodes = (
(772,611,o),
(747,575,o),
(738,525,cs),
(725,451,o),
(728,357,o),
(654,357,cs),
(629,357,o),
(595,375,o),
(574,400,cs),
(553,425,o),
(534,443,o),
(529,443,cs),
(504,443,o),
(503,388,o),
(513,357,cs),
(574,142,o),
(704,-14,o),
(820,-14,cs),
(901,-14,o),
(982,47,o),
(982,210,cs),
(982,391,o),
(870,611,o),
(797,611,cs)
);
},
{
closed = 1;
nodes = (
(463,611,o),
(351,391,o),
(351,210,cs),
(351,47,o),
(432,-14,o),
(513,-14,cs),
(629,-14,o),
(759,142,o),
(820,357,cs),
(830,388,o),
(829,443,o),
(804,443,cs),
(799,443,o),
(780,425,o),
(759,400,cs),
(738,375,o),
(704,357,o),
(679,357,cs),
(605,357,o),
(608,451,o),
(595,525,cs),
(586,575,o),
(561,611,o),
(536,611,cs)
);
}
);
width = 1014;
}
);
unicode = 119;
},
{
color = 10;
glyphname = x;
lastChange = "2023-10-30 18:43:11 +0000";
layers = (
{
layerId = "49F060A0-2273-4F54-8B81-08E0B15B03EC";
shapes = (
{
closed = 1;
nodes = (
(387,-14,o),
(464,230,o),
(482,312,cs),
(517,474,o),
(454,611,o),
(337,611,cs),
(167,611,o),
(43,321,o),
(20,254,cs),
(13,233,o),
(10,218,o),
(10,205,cs),
(10,197,o),
(11,187,o),
(17,178,cs),
(21,172,o),
(27,166,o),
(34,166,cs),
(47,166,o),
(65,189,o),
(79,209,cs),
(95,231,o),
(127,250,o),
(161,250,cs),
(182,250,o),
(195,240,o),
(204,230,cs),
(231,199,o),
(239,147,o),
(239,74,cs),
(239,31,o),
(258,-14,o),
(295,-14,cs)
);
},
{
closed = 1;
locked = 1;
nodes = (
(517,611,o),
(440,367,o),
(422,285,cs),
(387,123,o),
(450,-14,o),
(567,-14,cs),
(737,-14,o),
(861,276,o),
(884,343,cs),
(891,364,o),
(894,379,o),
(894,392,cs),
(894,400,o),
(893,410,o),
(887,419,cs),
(883,425,o),
(877,431,o),
(870,431,cs),
(857,431,o),
(839,408,o),
(825,388,cs),
(809,366,o),
(777,347,o),
(743,347,cs),
(722,347,o),
(709,357,o),
(700,367,cs),
(673,398,o),
(665,450,o),
(665,523,cs),
(665,566,o),
(646,611,o),
(609,611,cs)
);
}
);
width = 904;
}
);
unicode = 120;
},
{
color = 10;
glyphname = y;
lastChange = "2023-10-30 18:39:13 +0000";
layers = (
{
layerId = "49F060A0-2273-4F54-8B81-08E0B15B03EC";
shapes = (
{
closed = 1;
locked = 1;
nodes = (
(412,265,o),
(412,-74,o),
(351,-74,cs),
(333,-74,o),
(310,-63,o),
(296,-63,cs),
(281,-63,o),
(268,-76,o),
(268,-101,cs),
(268,-152,o),
(323,-198,o),
(382,-198,cs),
(591,-198,o),
(644,126,o),
(644,326,cs),
(644,495,o),
(617,615,o),
(524,615,cs),
(431,615,o),
(412,495,o),
(412,321,cs)
);
},
{
closed = 1;
nodes = (
(144,612,o),
(32,392,o),
(32,211,cs),
(32,48,o),
(113,-13,o),
(194,-13,cs),
(310,-13,o),
(440,143,o),
(501,358,cs),
(511,389,o),
(510,444,o),
(485,444,cs),
(480,444,o),
(461,426,o),
(440,401,cs),
(419,376,o),
(385,358,o),
(360,358,cs),
(286,358,o),
(276,449,o),
(276,523,cs),
(276,596,o),
(242,612,o),
(217,612,cs)
);
}
);
width = 684;
}
);
unicode = 121;
},
{
color = 10;
glyphname = z;
lastChange = "2023-10-30 18:43:34 +0000";
layers = (
{
layerId = "49F060A0-2273-4F54-8B81-08E0B15B03EC";
shapes = (
{
closed = 1;
nodes = (
(488,232,o),
(585,340,o),
(585,448,cs),
(585,563,o),
(497,615,o),
(300,615,cs),
(138,615,o),
(20,521,o),
(20,394,cs),
(20,317,o),
(68,250,o),
(141,250,cs),
(185,250,o),
(248,279,o),
(287,279,cs),
(303,279,o),
(313,273,o),
(313,258,cs),
(313,232,o),
(283,217,o),
(262,207,cs),
(145,149,o),
(99,114,o),
(99,82,cs),
(99,4,o),
(210,-13,o),
(276,-13,cs),
(341,-13,o),
(430,3,o),
(458,47,cs),
(463,57,o),
(465,64,o),
(465,71,cs),
(465,88,o),
(446,98,o),
(413,98,cs),
(386,98,o),
(380,95,o),
(352,95,cs),
(319,95,o),
(284,95,o),
(284,110,cs),
(284,114,o),
(288,119,o),
(297,123,c)
);
}
);
width = 605;
}
);
unicode = 122;
},
{
color = 10;
glyphname = zero;
lastChange = "2023-10-30 16:16:22 +0000";
layers = (
{
layerId = "49F060A0-2273-4F54-8B81-08E0B15B03EC";
shapes = (
{
closed = 1;
nodes = (
(6,105,o),
(119,-16,o),
(304,-16,c),
(494,-16,o),
(600,106,o),
(600,389,c),
(600,670,o),
(494,784,o),
(304,784,c),
(117,784,o),
(6,672,o),
(6,389,c)
);
},
{
closed = 1;
nodes = (
(369,543,cs),
(369,396,o),
(350,362,o),
(301,362,c),
(254,362,o),
(233,395,o),
(233,544,cs),
(233,691,o),
(255,722,o),
(300,722,c),
(345,722,o),
(369,691,o)
);
}
);
width = 590;
}
);
unicode = 48;
},
{
color = 10;
glyphname = one;
lastChange = "2023-10-30 16:18:10 +0000";
layers = (
{
layerId = "49F060A0-2273-4F54-8B81-08E0B15B03EC";
shapes = (
{
closed = 1;
nodes = (
(258,321,o),
(248,311,o),
(238,303,cs),
(173,251,o),
(82,287,o),
(32,385,cs),
(-61,568,o),
(159,785,o),
(403,785,cs),
(498,785,o),
(576,756,o),
(576,459,cs),
(576,203,o),
(519,-15,o),
(429,-15,c),
(352,-15,o),
(296,150,o),
(282,354,c)
);
}
);
width = 616;
}
);
unicode = 49;
},
{
color = 10;
glyphname = two;
lastChange = "2023-10-30 16:23:46 +0000";
layers = (
{
layerId = "49F060A0-2273-4F54-8B81-08E0B15B03EC";
shapes = (
{
closed = 1;
nodes = (
(422,-7,o),
(363,-15,o),
(328,-15,cs),
(197,-15,o),
(140,42,o),
(140,145,cs),
(140,270,o),
(204,320,o),
(368,320,cs),
(396,320,o),
(417,320,o),
(433,320,cs),
(447,320,o),
(455,329,o),
(455,346,cs),
(455,363,o),
(447,372,o),
(433,372,cs),
(418,372,o),
(397,372,o),
(370,372,cs),
(188,372,ls),
(91,372,o),
(43,428,o),
(43,529,cs),
(43,683,o),
(152,785,o),
(363,785,cs),
(622,785,o),
(687,627,o),
(687,339,cs),
(687,179,o),
(474,166,o),
(399,166,cs),
(301,166,o),
(260,147,o),
(260,107,cs),
(260,71,o),
(293,49,o),
(351,49,cs),
(379,49,o),
(402,54,o),
(418,64,cs),
(448,84,o),
(451,107,o),
(470,107,cs),
(503,107,o),
(481,49,o),
(452,20,cs)
);
}
);
width = 715;
}
);
unicode = 50;
},
{
color = 10;
glyphname = three;
lastChange = "2023-10-30 16:28:53 +0000";
layers = (
{
layerId = "49F060A0-2273-4F54-8B81-08E0B15B03EC";
shapes = (
{
closed = 1;
locked = 1;
nodes = (
(-9,408,o),
(28,388,cs),
(128,334,o),
(378,450,o),
(378,336,cs),
(378,318,o),
(367,303,o),
(347,292,cs),
(308,271,o),
(291,245,o),
(291,207,cs),
(291,180,o),
(309,159,o),
(351,126,cs),
(361,118,o),
(367,108,o),
(367,97,cs),
(367,70,o),
(333,49,o),
(291,49,cs),
(265,49,o),
(241,56,o),
(224,73,cs),
(206,92,o),
(194,109,o),
(180,121,cs),
(165,134,o),
(148,142,o),
(119,142,cs),
(118,142,ls),
(91,142,o),
(70,120,o),
(70,94,cs),
(70,74,o),
(81,51,o),
(111,32,cs),
(159,2,o),
(223,-15,o),
(291,-15,cs),
(446,-15,o),
(545,47,o),
(545,142,cs),
(545,222,o),
(502,273,o),
(433,273,c),
(561,302,o),
(654,369,o),
(654,504,cs),
(654,665,o),
(502,785,o),
(291,785,cs),
(81,785,o),
(-29,683,o),
(-29,530,cs),
(-29,451,o)
);
}
);
width = 639;
}
);
unicode = 51;
},
{
color = 10;
glyphname = four;
lastChange = "2023-10-30 17:00:23 +0000";
layers = (
{
layerId = "49F060A0-2273-4F54-8B81-08E0B15B03EC";
shapes = (
{
closed = 1;
nodes = (
(568,-15,o),
(597,39,o),
(622,162,c),
(681,174,o),
(719,197,o),
(719,224,cs),
(719,244,o),
(687,262,o),
(639,274,c),
(651,345,o),
(657,402,o),
(657,475,cs),
(657,476,l),
(657,735,o),
(579,785,o),
(486,785,cs),
(284,785,o),
(176,617,o),
(90,463,cs),
(-51,214,o),
(91,152,o),
(266,152,cs),
(445,152,l),
(464,36,o),
(490,-15,o),
(529,-15,cs)
);
},
{
closed = 1;
nodes = (
(340,348,o),
(359,376,o),
(395,376,cs),
(410,376,o),
(423,368,o),
(423,324,cs),
(423,273,o),
(410,268,o),
(392,268,cs),
(375,268,o),
(361,268,o),
(343,268,cs),
(331,268,o),
(321,274,o),
(317,282,cs),
(313,290,o),
(315,303,o),
(325,321,cs)
);
}
);
width = 759;
}
);
unicode = 52;
},
{
color = 10;
glyphname = five;
lastChange = "2023-10-30 17:03:28 +0000";
layers = (
{
layerId = "49F060A0-2273-4F54-8B81-08E0B15B03EC";
shapes = (
{
closed = 1;
nodes = (
(320,106,ls),
(334,106,o),
(343,102,o),
(351,96,cs),
(360,89,o),
(368,78,o),
(381,66,cs),
(400,50,o),
(430,48,o),
(446,48,cs),
(488,48,o),
(497,87,o),
(497,132,cs),
(497,172,o),
(443,183,o),
(345,183,cs),
(151,183,o),
(43,268,o),
(43,394,cs),
(43,664,o),
(142,786,o),
(403,786,cs),
(612,786,o),
(723,684,o),
(723,531,cs),
(723,431,o),
(673,369,o),
(576,369,cs),
(540,369,o),
(444,392,o),
(400,392,cs),
(324,392,o),
(299,384,o),
(299,360,cs),
(299,330,o),
(328,325,o),
(396,325,cs),
(612,325,o),
(665,251,o),
(665,167,cs),
(665,59,o),
(579,-14,o),
(440,-14,cs),
(369,-14,o),
(325,4,o),
(293,39,cs),
(262,73,o),
(276,106,o),
(308,106,cs)
);
}
);
width = 751;
}
);
unicode = 53;
},
{
color = 10;
glyphname = six;
lastChange = "2023-10-30 17:04:04 +0000";
layers = (
{
layerId = "49F060A0-2273-4F54-8B81-08E0B15B03EC";
shapes = (
{
closed = 1;
nodes = (
(491,-17,o),
(532,66,o),
(532,138,cs),
(532,239,o),
(472,321,o),
(339,321,cs),
(270,321,o),
(241,327,o),
(241,357,cs),
(241,381,o),
(267,389,o),
(342,389,cs),
(385,389,o),
(481,365,o),
(519,365,cs),
(616,365,o),
(664,426,o),
(664,528,cs),
(664,681,o),
(555,783,o),
(344,783,cs),
(85,783,o),
(20,625,o),
(20,338,cs),
(20,92,o),
(148,-17,o),
(329,-17,cs)
);
},
{
closed = 1;
nodes = (
(411,66,o),
(377,45,o),
(320,45,cs),
(263,45,o),
(229,66,o),
(229,104,cs),
(229,140,o),
(263,160,o),
(320,160,cs),
(377,160,o),
(411,140,o),
(411,104,cs)
);
}
);
width = 692;
}
);
unicode = 54;
},
{
color = 10;
glyphname = seven;
lastChange = "2023-10-30 17:08:45 +0000";
layers = (
{
layerId = "49F060A0-2273-4F54-8B81-08E0B15B03EC";
shapes = (
{
closed = 1;
nodes = (
(209,-15,o),
(292,11,o),
(408,86,cs),
(526,162,o),
(657,275,o),
(657,482,cs),
(657,678,o),
(541,785,o),
(326,785,cs),
(125,785,o),
(5,691,o),
(5,534,cs),
(5,425,o),
(62,371,o),
(158,371,cs),
(193,371,o),
(294,371,o),
(337,371,cs),
(389,371,o),
(414,371,o),
(425,365,cs),
(431,361,o),
(433,356,o),
(433,348,cs),
(433,338,o),
(430,331,o),
(424,323,cs),
(411,307,o),
(384,285,o),
(334,248,cs),
(254,189,o),
(110,62,o),
(110,10,cs),
(110,-8,o),
(130,-15,o),
(162,-15,c)
);
}
);
width = 707;
}
);
unicode = 55;
},
{
color = 10;
glyphname = eight;
lastChange = "2023-10-30 17:10:56 +0000";
layers = (
{
layerId = "49F060A0-2273-4F54-8B81-08E0B15B03EC";
shapes = (
{
closed = 1;
nodes = (
(502,349,o),
(464,324,o),
(398,324,cs),
(328,324,o),
(291,351,o),
(291,393,cs),
(291,437,o),
(334,460,o),
(402,460,cs),
(466,460,o),
(502,433,o),
(502,392,cs)
);
},
{
closed = 1;
nodes = (
(488,68,o),
(455,46,o),
(397,46,cs),
(339,46,o),
(306,68,o),
(306,105,cs),
(306,141,o),
(339,162,o),
(397,162,cs),
(455,162,o),
(488,141,o),
(488,105,cs)
);
},
{
closed = 1;
nodes = (
(556,-17,o),
(650,40,o),
(650,140,cs),
(650,223,o),
(621,270,o),
(539,270,c),
(679,310,o),
(759,394,o),
(759,502,cs),
(759,680,o),
(627,783,o),
(397,783,cs),
(167,783,o),
(35,680,o),
(35,502,cs),
(35,394,o),
(115,310,o),
(255,270,c),
(173,270,o),
(144,224,o),
(144,140,cs),
(144,40,o),
(238,-17,o),
(397,-17,cs)
);
}
);
width = 794;
}
);
unicode = 56;
},
{
color = 10;
glyphname = nine;
lastChange = "2023-10-30 17:14:26 +0000";
layers = (
{
layerId = "49F060A0-2273-4F54-8B81-08E0B15B03EC";
shapes = (
{
closed = 1;
nodes = (
(507,-18,o),
(653,23,o),
(653,341,cs),
(653,624,o),
(604,782,o),
(346,782,cs),
(138,782,o),
(28,683,o),
(28,529,cs),
(28,368,o),
(92,285,o),
(179,285,cs),
(219,285,o),
(318,286,o),
(364,286,cs),
(441,286,o),
(468,259,o),
(468,221,cs),
(468,99,o),
(404,86,o),
(236,86,cs),
(172,86,o),
(233,-18,o),
(361,-18,cs)
);
},
{
closed = 1;
nodes = (
(403,613,o),
(370,592,o),
(313,592,cs),
(255,592,o),
(222,613,o),
(222,651,cs),
(222,686,o),
(255,707,o),
(313,707,cs),
(370,707,o),
(403,686,o),
(403,651,cs)
);
}
);
width = 673;
}
);
unicode = 57;
},
{
color = 10;
glyphname = period;
lastChange = "2023-10-18 16:52:55 +0000";
layers = (
{
layerId = "49F060A0-2273-4F54-8B81-08E0B15B03EC";
shapes = (
{
closed = 1;
locked = 1;
nodes = (
(12,99,o),
(29,123,o),
(62,123,cs),
(95,123,o),
(111,99,o),
(111,70,cs),
(111,41,o),
(95,16,o),
(61,16,cs),
(29,16,o),
(12,41,o),
(12,69,cs)
);
}
);
width = 123;
}
);
unicode = 46;
},
{
color = 10;
glyphname = comma;
lastChange = "2023-10-18 16:52:55 +0000";
layers = (
{
layerId = "49F060A0-2273-4F54-8B81-08E0B15B03EC";
shapes = (
{
closed = 1;
nodes = (
(35,52,o),
(29,69,o),
(29,83,cs),
(29,110,o),
(50,124,o),
(67,124,cs),
(108,124,o),
(129,41,o),
(129,3,cs),
(129,-50,o),
(88,-131,o),
(26,-131,cs),
(14,-131,o),
(8,-128,o),
(8,-123,cs),
(8,-118,o),
(18,-104,o),
(32,-84,cs),
(49,-61,o),
(61,-37,o),
(61,-8,cs),
(61,10,o),
(56,21,o),
(48,33,cs)
);
}
);
width = 139;
}
);
unicode = 44;
},
{
color = 10;
glyphname = question;
lastChange = "2023-10-30 04:18:51 +0000";
layers = (
{
layerId = "49F060A0-2273-4F54-8B81-08E0B15B03EC";
shapes = (
{
closed = 1;
nodes = (
(192,-178,o),
(212,-157,o),
(212,-125,cs),
(212,-93,o),
(192,-72,o),
(161,-72,cs),
(129,-72,o),
(109,-93,o),
(109,-125,cs),
(109,-157,o),
(129,-178,o),
(161,-178,cs)
);
},
{
closed = 1;
nodes = (
(224,100,o),
(229,114,o),
(236,119,cs),
(253,130,o),
(280,137,o),
(323,137,cs),
(381,137,o),
(509,128,o),
(509,253,cs),
(509,477,o),
(458,600,o),
(255,600,cs),
(91,600,o),
(5,521,o),
(5,401,cs),
(5,322,o),
(43,274,o),
(119,274,cs),
(148,274,o),
(227,278,o),
(261,278,cs),
(320,278,o),
(336,281,o),
(336,262,cs),
(336,239,o),
(313,240,o),
(260,239,cs),
(184,238,o),
(135,219,o),
(108,183,cs),
(98,170,o),
(91,145,o),
(87,118,cs),
(80,73,o),
(106,48,o),
(148,48,cs),
(193,48,o),
(215,60,o),
(221,85,cs)
);
}
);
width = 554;
}
);
unicode = 63;
},
{
glyphname = questiondown;
lastChange = "2023-10-30 04:19:02 +0000";
layers = (
{
layerId = "49F060A0-2273-4F54-8B81-08E0B15B03EC";
shapes = (
{
closed = 1;
nodes = (
(362,581,o),
(342,560,o),
(342,528,cs),
(342,496,o),
(362,475,o),
(393,475,cs),
(425,475,o),
(445,496,o),
(445,528,cs),
(445,560,o),
(425,581,o),
(393,581,cs)
);
},
{
closed = 1;
nodes = (
(330,303,o),
(325,289,o),
(318,284,cs),
(301,273,o),
(274,266,o),
(231,266,cs),
(173,266,o),
(45,275,o),
(45,150,cs),
(45,-74,o),
(96,-197,o),
(299,-197,cs),
(463,-197,o),
(549,-118,o),
(549,2,cs),
(549,81,o),
(511,129,o),
(435,129,cs),
(406,129,o),
(327,125,o),
(293,125,cs),
(234,125,o),
(218,122,o),
(218,141,cs),
(218,164,o),
(241,163,o),
(294,164,cs),
(370,165,o),
(419,184,o),
(446,220,cs),
(456,233,o),
(463,258,o),
(467,285,cs),
(474,330,o),
(448,355,o),
(406,355,cs),
(361,355,o),
(339,343,o),
(333,318,cs)
);
}
);
width = 554;
}
);
unicode = 191;
},
{
color = 10;
glyphname = at;
lastChange = "2023-10-30 18:57:26 +0000";
layers = (
{
backgroundImage = {
imagePath = "Scan 9.png";
locked = 1;
pos = (36,-760);
scale = (1.9143,1.9143);
};
layerId = "49F060A0-2273-4F54-8B81-08E0B15B03EC";
shapes = (
{
closed = 1;
nodes = (
(434,263,o),
(423,298,o),
(423,334,cs),
(423,370,o),
(446,374,o),
(513,374,c),
(517,351,o),
(520,321,o),
(524,301,c),
(515,268,o),
(483,263,o),
(463,263,cs)
);
},
{
closed = 1;
nodes = (
(181,811,o),
(20,748,o),
(20,350,cs),
(20,75,o),
(97,-15,o),
(394,-15,cs),
(580,-15,o),
(682,19,o),
(743,129,cs),
(772,181,o),
(777,229,o),
(751,229,cs),
(734,229,o),
(718,201,o),
(701,169,cs),
(666,108,o),
(607,46,o),
(394,46,cs),
(242,46,o),
(139,78,o),
(139,286,cs),
(139,443,o),
(197,489,o),
(397,489,cs),
(481,489,o),
(499,481,o),
(499,462,cs),
(499,440,o),
(474,435,o),
(388,435,cs),
(249,435,o),
(213,391,o),
(213,302,cs),
(213,199,o),
(259,160,o),
(380,160,cs),
(466,160,o),
(500,181,o),
(536,259,c),
(558,177,o),
(575,154,o),
(608,154,cs),
(670,154,o),
(698,230,o),
(698,424,cs),
(698,727,o),
(631,811,o),
(389,811,cs)
);
}
);
width = 798;
}
);
locked = 1;
unicode = 64;
},
{
color = 10;
glyphname = copyright;
lastChange = "2023-10-30 18:44:04 +0000";
layers = (
{
layerId = "49F060A0-2273-4F54-8B81-08E0B15B03EC";
shapes = (
{
closed = 1;
nodes = (
(575,-45,o),
(720,100,o),
(720,299,cs),
(720,498,o),
(575,643,o),
(376,643,cs),
(177,643,o),
(32,498,o),
(32,299,cs),
(32,100,o),
(177,-45,o),
(376,-45,cs)
);
},
{
closed = 1;
nodes = (
(398,42,o),
(413,45,o),
(413,54,cs),
(413,58,o),
(408,60,o),
(402,60,cs),
(397,60,o),
(390,59,o),
(382,59,cs),
(347,59,o),
(330,81,o),
(330,117,cs),
(330,149,o),
(344,177,o),
(377,177,cs),
(389,177,o),
(418,170,o),
(430,170,cs),
(458,170,o),
(473,185,o),
(473,215,cs),
(473,260,o),
(440,290,o),
(382,290,cs),
(302,290,o),
(253,233,o),
(253,163,cs),
(253,89,o),
(310,42,o),
(373,42,cs)
);
},
{
closed = 1;
nodes = (
(258,20,o),
(183,96,o),
(183,213,cs),
(183,330,o),
(258,406,o),
(375,406,cs),
(493,406,o),
(569,330,o),
(569,213,cs),
(569,96,o),
(493,20,o),
(375,20,cs)
);
}
);
width = 752;
}
);
unicode = 169;
},
{
color = 10;
glyphname = registered;
lastChange = "2023-10-30 18:56:00 +0000";
layers = (
{
layerId = "49F060A0-2273-4F54-8B81-08E0B15B03EC";
shapes = (
{
closed = 1;
nodes = (
(378,318,o),
(472,412,o),
(472,542,cs),
(472,671,o),
(378,765,o),
(248,765,cs),
(119,765,o),
(25,671,o),
(25,542,cs),
(25,412,o),
(119,318,o),
(248,318,cs)
);
},
{
closed = 1;
nodes = (
(172,360,o),
(123,410,o),
(123,486,cs),
(123,561,o),
(172,611,o),
(248,611,cs),
(324,611,o),
(374,561,o),
(374,486,cs),
(374,410,o),
(324,360,o),
(248,360,cs)
);
},
{
closed = 1;
nodes = (
(227,378,o),
(230,382,o),
(230,387,cs),
(230,394,o),
(226,403,o),
(226,409,cs),
(226,418,o),
(237,418,o),
(246,418,cs),
(251,418,o),
(266,418,o),
(270,418,cs),
(306,418,o),
(335,445,o),
(335,481,cs),
(335,516,o),
(304,553,o),
(245,553,cs),
(193,553,o),
(160,525,o),
(160,481,cs),
(160,445,o),
(182,398,o),
(212,381,cs),
(217,378,o),
(219,378,o),
(221,378,cs)
);
},
{
closed = 1;
nodes = (
(258,411,o),
(263,404,cs),
(275,387,o),
(282,380,o),
(288,380,cs),
(294,380,o),
(296,389,o),
(296,412,cs),
(296,419,o),
(300,425,o),
(307,429,c),
(307,435,l),
(297,426,l),
(239,426,l),
(239,424,o),
(239,421,o),
(239,418,c),
(249,418,o)
);
},
{
closed = 1;
nodes = (
(264,434,o),
(247,433,o),
(240,433,cs),
(226,433,o),
(221,440,o),
(221,452,cs),
(221,468,o),
(234,473,o),
(246,473,cs),
(263,473,o),
(274,464,o),
(274,452,cs),
(274,448,o),
(273,443,o),
(270,440,cs)
);
}
);
width = 497;
}
);
unicode = 174;
},
